<?xml version="1.0" encoding="UTF-8" standalone="no"?>
<!DOCTYPE svg PUBLIC "-//W3C//DTD SVG 1.1//EN" "http://www.w3.org/Graphics/SVG/1.1/DTD/svg11.dtd">
<svg width="164.57" height="98.74" viewBox="0.00 0.00 800.00 480.00" xmlns="http://www.w3.org/2000/svg" xmlns:xlink="http://www.w3.org/1999/xlink">
<g stroke-linecap="round" id="Capa_21">
<path d="M370.13,443.94 C373.15,445.83 388.73,449.23 397.37,449.60 C403.48,449.83 414.71,449.39 425.54,448.40 C435.29,447.36 445.62,445.72 451.73,444.35 C460.25,442.32 471.08,439.10 477.62,437.11 C484.58,434.90 497.41,429.27 499.33,428.10 C500.47,427.39 508.54,422.29 511.19,419.95 C513.76,417.65 517.95,413.00 519.70,410.38 C521.27,408.01 524.44,401.80 525.58,398.33 C526.83,394.40 527.85,387.54 527.81,383.48 C527.73,379.87 526.18,372.34 525.07,369.55 C523.94,366.79 520.18,361.19 517.72,358.74 C514.94,356.01 510.20,352.54 507.03,350.88 C501.21,347.91 494.12,346.67 480.96,345.34 C469.87,344.53 438.10,346.89 424.22,347.85 C417.69,348.41 391.31,352.18 387.94,352.68 C385.80,352.98 381.63,353.55 379.62,353.82 C377.32,354.13 376.69,354.24 376.74,354.28" fill="none" stroke="rgb(255, 134, 0)" stroke-width="15.60" stroke-opacity="1.00" stroke-linejoin="round"/>
<path d="M429.53,443.94 C426.50,445.83 410.92,449.23 402.29,449.60 C396.18,449.83 384.95,449.39 374.11,448.40 C364.37,447.36 354.03,445.72 347.92,444.35 C339.40,442.32 328.57,439.10 322.03,437.11 C315.08,434.90 302.24,429.27 300.32,428.10 C299.18,427.39 291.12,422.29 288.46,419.95 C285.89,417.65 281.70,413.00 279.95,410.38 C278.39,408.01 275.21,401.80 274.08,398.33 C272.83,394.40 271.80,387.54 271.85,383.48 C271.92,379.87 273.48,372.34 274.59,369.55 C275.72,366.79 279.48,361.19 281.94,358.74 C284.72,356.01 289.46,352.54 292.63,350.88 C298.44,347.91 305.53,346.67 318.69,345.34 C329.78,344.53 361.56,346.89 375.44,347.85 C381.97,348.41 408.35,352.18 411.72,352.68 C413.86,352.98 418.02,353.55 420.04,353.82 C422.34,354.13 422.97,354.24 422.91,354.28" fill="none" stroke="rgb(255, 134, 0)" stroke-width="15.60" stroke-opacity="1.00" stroke-linejoin="round"/>
</g>
</svg>
