<?xml version="1.0" encoding="UTF-8" standalone="no"?>
<!DOCTYPE svg PUBLIC "-//W3C//DTD SVG 1.1//EN" "http://www.w3.org/Graphics/SVG/1.1/DTD/svg11.dtd">
<svg width="164.57" height="98.74" viewBox="0.00 0.00 800.00 480.00" xmlns="http://www.w3.org/2000/svg" xmlns:xlink="http://www.w3.org/1999/xlink">
<g stroke-linecap="round" id="Capa_12">
  <path d="
    M415.10,348.38 
    C414.89,348.41 414.68,348.43 414.47,348.45 
    C409.38,348.90 392.04,348.81 386.91,347.86 
    C384.10,347.31 378.28,345.62 374.65,343.67 
    C373.63,343.11 364.27,337.55 363.25,336.98 
    C359.84,335.09 353.88,333.06 351.17,332.53 
    C347.92,331.92 341.34,331.90 338.02,332.31 
    C332.65,333.00 318.66,337.04 312.53,339.68 
    C304.99,342.95 293.53,349.84 288.20,354.40 
    C283.71,358.27 274.93,367.94 269.38,375.55 
    C263.70,383.47 257.64,394.12 253.82,403.39 
    C252.28,407.24 251.30,411.26 251.05,414.54 
    C251.00,415.31 250.74,422.96 251.38,426.17 
    C252.08,429.46 255.44,435.25 257.99,437.62 
    C260.66,440.03 266.69,443.06 269.58,443.87 
    C274.25,445.11 288.73,444.83 294.65,443.81 
    C299.18,443.01 342.00,433.03 351.31,431.08 
    C358.71,429.72 372.20,427.60 377.88,427.17 
    C382.17,426.86 400.22,426.50 408.34,426.41 
    C415.17,426.42 429.35,426.41 436.71,426.41 
    C440.33,426.38 446.50,426.35 446.53,426.35 
    L384.55,348.38 
    C384.76,348.41 384.98,348.43 385.19,348.45 
    C390.28,348.90 407.62,348.81 412.74,347.86 
    C415.56,347.31 421.38,345.62 425.00,343.67 
    C426.03,343.11 435.39,337.55 436.40,336.98 
    C439.81,335.09 445.77,333.06 448.49,332.53 
    C451.74,331.92 458.31,331.90 461.64,332.31 
    C467.01,333.00 480.99,337.04 487.12,339.68 
    C494.67,342.95 506.13,349.84 511.46,354.40 
    C515.94,358.27 524.72,367.94 530.27,375.55 
    C535.96,383.47 542.02,394.12 545.83,403.39 
    C547.37,407.24 548.35,411.26 548.60,414.54 
    C548.65,415.31 548.92,422.96 548.28,426.17 
    C547.58,429.46 544.22,435.25 541.67,437.62 
    C539.00,440.03 532.96,443.06 530.07,443.87 
    C525.41,445.11 510.93,444.83 505.01,443.81 
    C500.48,443.01 457.65,433.03 448.35,431.08 
    C440.94,429.72 427.45,427.60 421.78,427.17 
    C417.48,426.86 399.44,426.50 391.31,426.41 
    C384.49,426.42 370.30,426.41 362.95,426.41 
    C359.32,426.38 353.16,426.35 353.12,426.35" 
    fill="none" stroke="rgb(255, 134, 0)" stroke-width="15.60" stroke-opacity="1.00" stroke-linejoin="round"/>
</g>
</svg>
